<svg width="1026" height="432" viewBox="0 0 1026 432" fill="none" xmlns="http://www.w3.org/2000/svg">
<path d="M494.166 301.617L515.288 270.608C515.288 270.608 540.904 297.122 580.451 297.122C599.326 297.122 618.201 287.236 618.201 268.81C618.201 227.016 501.357 235.554 501.357 161.403C501.357 120.058 538.208 96.689 583.597 96.689C633.481 96.689 656.85 121.856 656.85 121.856L639.323 154.662C639.323 154.662 619.1 134.439 583.148 134.439C564.273 134.439 545.847 142.528 545.847 162.302C545.847 203.197 662.692 194.209 662.692 268.81C662.692 306.56 630.335 334.872 580.451 334.872C524.725 334.872 494.166 301.617 494.166 301.617Z" fill="black"/>
<path d="M711.336 267.462V12.2014H754.928V259.822C754.928 287.236 765.714 292.179 779.196 292.179C783.241 292.179 786.836 291.73 786.836 291.73V330.378C786.836 330.378 780.095 331.277 772.455 331.277C747.738 331.277 711.336 324.536 711.336 267.462Z" fill="black"/>
<path d="M801.059 409.922L816.338 376.667C816.338 376.667 828.922 386.104 842.853 386.104C860.38 386.104 875.21 373.521 883.749 352.848L894.984 326.783L799.711 102.082H848.695L905.769 250.834C910.264 262.519 914.308 278.248 914.308 278.248H915.207C915.207 278.248 918.802 262.968 922.847 251.283L978.123 102.082H1025.31L918.802 370.375C904.871 405.428 877.008 423.854 845.1 423.854C819.484 423.854 801.059 409.922 801.059 409.922Z" fill="black"/>
<path d="M0.798355 216.054L93.2126 123.64L185.653 216.081L93.2388 308.495L0.798355 216.054Z" fill="black"/>
<path d="M124.017 92.8354L216.432 0.421134L308.872 92.8616L216.458 185.276L124.017 92.8354Z" fill="black"/>
<path d="M124.052 339.308L216.467 246.894L308.907 339.334L216.493 431.749L124.052 339.308Z" fill="black"/>
<path d="M247.271 216.089L339.686 123.675L432.126 216.115L339.712 308.53L247.271 216.089Z" fill="black"/>
</svg>
