<?xml version="1.0" encoding="UTF-8"?>
<svg xmlns="http://www.w3.org/2000/svg" xmlns:xlink="http://www.w3.org/1999/xlink" width="0" height="0">
<defs>
<symbol viewBox="0 0 24 24" id="x"><path fill="none" stroke="currentColor" stroke-linecap="round" stroke-linejoin="round" stroke-width="2" d="M18 6L6 18M6 6l12 12"></path></symbol>
<symbol viewBox="0 0 24 24" id="trash"><path fill="none" stroke="currentColor" stroke-linecap="round" stroke-linejoin="round" stroke-width="2" d="M3 6h18m-2 0v14c0 1-1 2-2 2H7c-1 0-2-1-2-2V6m3 0V4c0-1 1-2 2-2h4c1 0 2 1 2 2v2"></path></symbol>
<symbol viewBox="0 0 24 24" id="shopping-cart"><g fill="none" stroke="currentColor" stroke-linecap="round" stroke-linejoin="round" stroke-width="2"><circle cx="8" cy="21" r="1"></circle><circle cx="19" cy="21" r="1"></circle><path d="M2.05 2.05h2l2.66 12.42a2 2 0 0 0 2 1.58h9.78a2 2 0 0 0 1.95-1.57l1.65-7.43H5.12"></path></g></symbol>
<symbol viewBox="0 0 24 24" id="settings"><g fill="none" stroke="currentColor" stroke-linecap="round" stroke-linejoin="round" stroke-width="2"><path d="M12.22 2h-.44a2 2 0 0 0-2 2v.18a2 2 0 0 1-1 1.73l-.43.25a2 2 0 0 1-2 0l-.15-.08a2 2 0 0 0-2.73.73l-.22.38a2 2 0 0 0 .73 2.73l.15.1a2 2 0 0 1 1 1.72v.51a2 2 0 0 1-1 1.74l-.15.09a2 2 0 0 0-.73 2.73l.22.38a2 2 0 0 0 2.73.73l.15-.08a2 2 0 0 1 2 0l.43.25a2 2 0 0 1 1 1.73V20a2 2 0 0 0 2 2h.44a2 2 0 0 0 2-2v-.18a2 2 0 0 1 1-1.73l.43-.25a2 2 0 0 1 2 0l.15.08a2 2 0 0 0 2.73-.73l.22-.39a2 2 0 0 0-.73-2.73l-.15-.08a2 2 0 0 1-1-1.74v-.5a2 2 0 0 1 1-1.74l.15-.09a2 2 0 0 0 .73-2.73l-.22-.38a2 2 0 0 0-2.73-.73l-.15.08a2 2 0 0 1-2 0l-.43-.25a2 2 0 0 1-1-1.73V4a2 2 0 0 0-2-2"></path><circle cx="12" cy="12" r="3"></circle></g></symbol>
<symbol viewBox="0 0 24 24" id="plus"><path fill="none" stroke="currentColor" stroke-linecap="round" stroke-linejoin="round" stroke-width="2" d="M5 12h14m-7-7v14"></path></symbol>
<symbol viewBox="0 0 24 24" id="plus-circle"><g fill="none" stroke="currentColor" stroke-linecap="round" stroke-linejoin="round" stroke-width="2"><circle cx="12" cy="12" r="10"></circle><path d="M8 12h8m-4-4v8"></path></g></symbol>
<symbol viewBox="0 0 24 24" id="play"><path fill="none" stroke="currentColor" stroke-linecap="round" stroke-linejoin="round" stroke-width="2" d="m6 3l14 9l-14 9z"></path></symbol>
<symbol viewBox="0 0 24 24" id="panel-left"><g fill="none" stroke="currentColor" stroke-linecap="round" stroke-linejoin="round" stroke-width="2"><rect width="18" height="18" x="3" y="3" rx="2"></rect><path d="M9 3v18"></path></g></symbol>
<symbol viewBox="0 0 24 24" id="more-horizontal"><g fill="none" stroke="currentColor" stroke-linecap="round" stroke-linejoin="round" stroke-width="2"><circle cx="12" cy="12" r="1"></circle><circle cx="19" cy="12" r="1"></circle><circle cx="5" cy="12" r="1"></circle></g></symbol>
<symbol viewBox="0 0 24 24" id="minus"><path fill="none" stroke="currentColor" stroke-linecap="round" stroke-linejoin="round" stroke-width="2" d="M5 12h14"></path></symbol>
<symbol viewBox="0 0 24 24" id="log-out"><path fill="none" stroke="currentColor" stroke-linecap="round" stroke-linejoin="round" stroke-width="2" d="M9 21H5a2 2 0 0 1-2-2V5a2 2 0 0 1 2-2h4m7 14l5-5l-5-5m5 5H9"></path></symbol>
<symbol viewBox="0 0 24 24" id="library"><path fill="none" stroke="currentColor" stroke-linecap="round" stroke-linejoin="round" stroke-width="2" d="m16 6l4 14M12 6v14M8 8v12M4 4v16"></path></symbol>
<symbol viewBox="0 0 24 24" id="home"><g fill="none" stroke="currentColor" stroke-linecap="round" stroke-linejoin="round" stroke-width="2"><path d="M15 21v-8a1 1 0 0 0-1-1h-4a1 1 0 0 0-1 1v8"></path><path d="M3 10a2 2 0 0 1 .709-1.528l7-5.999a2 2 0 0 1 2.582 0l7 5.999A2 2 0 0 1 21 10v9a2 2 0 0 1-2 2H5a2 2 0 0 1-2-2z"></path></g></symbol>
<symbol viewBox="0 0 24 24" id="grip-vertical"><g fill="none" stroke="currentColor" stroke-linecap="round" stroke-linejoin="round" stroke-width="2"><circle cx="9" cy="12" r="1"></circle><circle cx="9" cy="5" r="1"></circle><circle cx="9" cy="19" r="1"></circle><circle cx="15" cy="12" r="1"></circle><circle cx="15" cy="5" r="1"></circle><circle cx="15" cy="19" r="1"></circle></g></symbol>
<symbol viewBox="0 0 24 24" id="github"><g fill="none" stroke="currentColor" stroke-linecap="round" stroke-linejoin="round" stroke-width="2"><path d="M15 22v-4a4.8 4.8 0 0 0-1-3.5c3 0 6-2 6-5.5c.08-1.25-.27-2.48-1-3.5c.28-1.15.28-2.35 0-3.5c0 0-1 0-3 1.5c-2.64-.5-5.36-.5-8 0C6 2 5 2 5 2c-.3 1.15-.3 2.35 0 3.5A5.4 5.4 0 0 0 4 9c0 3.5 3 5.5 6 5.5c-.39.49-.68 1.05-.85 1.65S8.93 17.38 9 18v4"></path><path d="M9 18c-4.51 2-5-2-7-2"></path></g></symbol>
<symbol viewBox="0 0 24 24" id="file"><g fill="none" stroke="currentColor" stroke-linecap="round" stroke-linejoin="round" stroke-width="2"><path d="M15 2H6a2 2 0 0 0-2 2v16a2 2 0 0 0 2 2h12a2 2 0 0 0 2-2V7Z"></path><path d="M14 2v4a2 2 0 0 0 2 2h4"></path></g></symbol>
<symbol viewBox="0 0 24 24" id="copy"><g fill="none" stroke="currentColor" stroke-linecap="round" stroke-linejoin="round" stroke-width="2"><rect width="14" height="14" x="8" y="8" rx="2" ry="2"></rect><path d="M4 16c-1.1 0-2-.9-2-2V4c0-1.1.9-2 2-2h10c1.1 0 2 .9 2 2"></path></g></symbol>
<symbol viewBox="0 0 24 24" id="copy-check"><g fill="none" stroke="currentColor" stroke-linecap="round" stroke-linejoin="round" stroke-width="2"><path d="m12 15l2 2l4-4"></path><rect width="14" height="14" x="8" y="8" rx="2" ry="2"></rect><path d="M4 16c-1.1 0-2-.9-2-2V4c0-1.1.9-2 2-2h10c1.1 0 2 .9 2 2"></path></g></symbol>
<symbol viewBox="0 0 24 24" id="cooking-pot"><path fill="none" stroke="currentColor" stroke-linecap="round" stroke-linejoin="round" stroke-width="2" d="M2 12h20m-2 0v8a2 2 0 0 1-2 2H6a2 2 0 0 1-2-2v-8m0-4l16-4M8.86 6.78l-.45-1.81a2 2 0 0 1 1.45-2.43l1.94-.48a2 2 0 0 1 2.43 1.46l.45 1.8"></path></symbol>
<symbol viewBox="0 0 24 24" id="cone"><g fill="none" stroke="currentColor" stroke-linecap="round" stroke-linejoin="round" stroke-width="2"><path d="m20.9 18.55l-8-15.98a1 1 0 0 0-1.8 0l-8 15.98"></path><ellipse cx="12" cy="19" rx="9" ry="3"></ellipse></g></symbol>
<symbol viewBox="0 0 24 24" id="compass"><g fill="none" stroke="currentColor" stroke-linecap="round" stroke-linejoin="round" stroke-width="2"><path d="m16.24 7.76l-1.804 5.411a2 2 0 0 1-1.265 1.265L7.76 16.24l1.804-5.411a2 2 0 0 1 1.265-1.265z"></path><circle cx="12" cy="12" r="10"></circle></g></symbol>
<symbol viewBox="0 0 24 24" id="cog"><g fill="none" stroke="currentColor" stroke-linecap="round" stroke-linejoin="round" stroke-width="2"><path d="M12 20a8 8 0 1 0 0-16a8 8 0 0 0 0 16"></path><path d="M12 14a2 2 0 1 0 0-4a2 2 0 0 0 0 4m0-12v2m0 18v-2m5 .66l-1-1.73m-5-8.66L7 3.34M20.66 17l-1.73-1M3.34 7l1.73 1M14 12h8M2 12h2m16.66-5l-1.73 1M3.34 17l1.73-1M17 3.34l-1 1.73m-5 8.66l-4 6.93"></path></g></symbol>
<symbol viewBox="0 0 24 24" id="circle"><circle cx="12" cy="12" r="10" fill="none" stroke="currentColor" stroke-linecap="round" stroke-linejoin="round" stroke-width="2"></circle></symbol>
<symbol viewBox="0 0 24 24" id="chevron-up"><path fill="none" stroke="currentColor" stroke-linecap="round" stroke-linejoin="round" stroke-width="2" d="m18 15l-6-6l-6 6"></path></symbol>
<symbol viewBox="0 0 24 24" id="chevron-right"><path fill="none" stroke="currentColor" stroke-linecap="round" stroke-linejoin="round" stroke-width="2" d="m9 18l6-6l-6-6"></path></symbol>
<symbol viewBox="0 0 24 24" id="chevron-left"><path fill="none" stroke="currentColor" stroke-linecap="round" stroke-linejoin="round" stroke-width="2" d="m15 18l-6-6l6-6"></path></symbol>
<symbol viewBox="0 0 24 24" id="chevron-down"><path fill="none" stroke="currentColor" stroke-linecap="round" stroke-linejoin="round" stroke-width="2" d="m6 9l6 6l6-6"></path></symbol>
<symbol viewBox="0 0 24 24" id="check"><path fill="none" stroke="currentColor" stroke-linecap="round" stroke-linejoin="round" stroke-width="2" d="M20 6L9 17l-5-5"></path></symbol>
<symbol viewBox="0 0 24 24" id="box"><g fill="none" stroke="currentColor" stroke-linecap="round" stroke-linejoin="round" stroke-width="2"><path d="M21 8a2 2 0 0 0-1-1.73l-7-4a2 2 0 0 0-2 0l-7 4A2 2 0 0 0 3 8v8a2 2 0 0 0 1 1.73l7 4a2 2 0 0 0 2 0l7-4A2 2 0 0 0 21 16Z"></path><path d="m3.3 7l8.7 5l8.7-5M12 22V12"></path></g></symbol>
<symbol viewBox="0 0 24 24" id="book"><path fill="none" stroke="currentColor" stroke-linecap="round" stroke-linejoin="round" stroke-width="2" d="M4 19.5v-15A2.5 2.5 0 0 1 6.5 2H19a1 1 0 0 1 1 1v18a1 1 0 0 1-1 1H6.5a1 1 0 0 1 0-5H20"></path></symbol>
<symbol viewBox="0 0 24 24" id="bomb"><g fill="none" stroke="currentColor" stroke-linecap="round" stroke-linejoin="round" stroke-width="2"><circle cx="11" cy="13" r="9"></circle><path d="M14.35 4.65L16.3 2.7a2.41 2.41 0 0 1 3.4 0l1.6 1.6a2.4 2.4 0 0 1 0 3.4l-1.95 1.95M22 2l-1.5 1.5"></path></g></symbol>
<symbol viewBox="0 0 24 24" id="bluetooth"><path fill="none" stroke="currentColor" stroke-linecap="round" stroke-linejoin="round" stroke-width="2" d="m7 7l10 10l-5 5V2l5 5L7 17"></path></symbol>
<symbol viewBox="0 0 24 24" id="bluetooth-off"><path fill="none" stroke="currentColor" stroke-linecap="round" stroke-linejoin="round" stroke-width="2" d="m17 17l-5 5V12l-5 5M2 2l20 20M14.5 9.5L17 7l-5-5v4.5"></path></symbol>
<symbol viewBox="0 0 24 24" id="bluetooth-connected"><path fill="none" stroke="currentColor" stroke-linecap="round" stroke-linejoin="round" stroke-width="2" d="m7 7l10 10l-5 5V2l5 5L7 17m11-5h3M3 12h3"></path></symbol>
<symbol viewBox="0 0 24 24" id="blocks"><g fill="none" stroke="currentColor" stroke-linecap="round" stroke-linejoin="round" stroke-width="2"><rect width="7" height="7" x="14" y="3" rx="1"></rect><path d="M10 21V8a1 1 0 0 0-1-1H4a1 1 0 0 0-1 1v12a1 1 0 0 0 1 1h12a1 1 0 0 0 1-1v-5a1 1 0 0 0-1-1H3"></path></g></symbol>
<symbol viewBox="0 0 24 24" id="banknote"><g fill="none" stroke="currentColor" stroke-linecap="round" stroke-linejoin="round" stroke-width="2"><rect width="20" height="12" x="2" y="6" rx="2"></rect><circle cx="12" cy="12" r="2"></circle><path d="M6 12h.01M18 12h.01"></path></g></symbol>
<symbol viewBox="0 0 24 24" id="banana"><g fill="none" stroke="currentColor" stroke-linecap="round" stroke-linejoin="round" stroke-width="2"><path d="M4 13c3.5-2 8-2 10 2a5.5 5.5 0 0 1 8 5"></path><path d="M5.15 17.89c5.52-1.52 8.65-6.89 7-12C11.55 4 11.5 2 13 2c3.22 0 5 5.5 5 8c0 6.5-4.2 12-10.49 12C5.11 22 2 22 2 20c0-1.5 1.14-1.55 3.15-2.11"></path></g></symbol>
<symbol viewBox="0 0 24 24" id="badge-swiss-franc"><g fill="none" stroke="currentColor" stroke-linecap="round" stroke-linejoin="round" stroke-width="2"><path d="M3.85 8.62a4 4 0 0 1 4.78-4.77a4 4 0 0 1 6.74 0a4 4 0 0 1 4.78 4.78a4 4 0 0 1 0 6.74a4 4 0 0 1-4.77 4.78a4 4 0 0 1-6.75 0a4 4 0 0 1-4.78-4.77a4 4 0 0 1 0-6.76"></path><path d="M11 17V8h4m-4 4h3m-5 4h4"></path></g></symbol>
<symbol viewBox="0 0 24 24" id="arrow-down-wide-narrow"><path fill="none" stroke="currentColor" stroke-linecap="round" stroke-linejoin="round" stroke-width="2" d="m3 16l4 4l4-4m-4 4V4m4 0h10M11 8h7m-7 4h4"></path></symbol>
<symbol viewBox="0 0 24 24" id="app-window-mac"><g fill="none" stroke="currentColor" stroke-linecap="round" stroke-linejoin="round" stroke-width="2"><rect width="20" height="16" x="2" y="4" rx="2"></rect><path d="M6 8h.01M10 8h.01M14 8h.01"></path></g></symbol>
<symbol viewBox="0 0 24 24" id="alert-triangle"><path fill="none" stroke="currentColor" stroke-linecap="round" stroke-linejoin="round" stroke-width="2" d="m21.73 18l-8-14a2 2 0 0 0-3.48 0l-8 14A2 2 0 0 0 4 21h16a2 2 0 0 0 1.73-3M12 9v4m0 4h.01"></path></symbol>
<symbol viewBox="0 0 24 24" id="alarm-clock"><g fill="none" stroke="currentColor" stroke-linecap="round" stroke-linejoin="round" stroke-width="2"><circle cx="12" cy="13" r="8"></circle><path d="M12 9v4l2 2M5 3L2 6m20 0l-3-3M6.38 18.7L4 21m13.64-2.33L20 21"></path></g></symbol>
<symbol viewBox="0 0 24 24" id="alarm-clock-plus"><g fill="none" stroke="currentColor" stroke-linecap="round" stroke-linejoin="round" stroke-width="2"><circle cx="12" cy="13" r="8"></circle><path d="M5 3L2 6m20 0l-3-3M6.38 18.7L4 21m13.64-2.33L20 21m-8-11v6m-3-3h6"></path></g></symbol>
<symbol viewBox="0 0 24 24" id="alarm-clock-off"><path fill="none" stroke="currentColor" stroke-linecap="round" stroke-linejoin="round" stroke-width="2" d="M6.87 6.87a8 8 0 1 0 11.26 11.26m1.77-3.88a8 8 0 0 0-9.15-9.15M22 6l-3-3M6.26 18.67L4 21M2 2l20 20M4 4L2 6"></path></symbol>
<symbol viewBox="0 0 24 24" id="alarm-clock-minus"><g fill="none" stroke="currentColor" stroke-linecap="round" stroke-linejoin="round" stroke-width="2"><circle cx="12" cy="13" r="8"></circle><path d="M5 3L2 6m20 0l-3-3M6.38 18.7L4 21m13.64-2.33L20 21M9 13h6"></path></g></symbol>
<symbol viewBox="0 0 24 24" id="alarm-clock-check"><g fill="none" stroke="currentColor" stroke-linecap="round" stroke-linejoin="round" stroke-width="2"><circle cx="12" cy="13" r="8"></circle><path d="M5 3L2 6m20 0l-3-3M6.38 18.7L4 21m13.64-2.33L20 21M9 13l2 2l4-4"></path></g></symbol>
<symbol viewBox="0 0 24 24" id="airplay"><g fill="none" stroke="currentColor" stroke-linecap="round" stroke-linejoin="round" stroke-width="2"><path d="M5 17H4a2 2 0 0 1-2-2V5a2 2 0 0 1 2-2h16a2 2 0 0 1 2 2v10a2 2 0 0 1-2 2h-1"></path><path d="m12 15l5 6H7Z"></path></g></symbol>
<symbol viewBox="0 0 24 24" id="air-vent"><path fill="none" stroke="currentColor" stroke-linecap="round" stroke-linejoin="round" stroke-width="2" d="M6 12H4a2 2 0 0 1-2-2V5a2 2 0 0 1 2-2h16a2 2 0 0 1 2 2v5a2 2 0 0 1-2 2h-2M6 8h12m.3 9.7a2.5 2.5 0 0 1-3.16 3.83a2.53 2.53 0 0 1-1.14-2V12m-7.4 3.6A2 2 0 1 0 10 17v-5"></path></symbol>
<symbol viewBox="0 0 24 24" id="activity"><path fill="none" stroke="currentColor" stroke-linecap="round" stroke-linejoin="round" stroke-width="2" d="M22 12h-2.48a2 2 0 0 0-1.93 1.46l-2.35 8.36a.25.25 0 0 1-.48 0L9.24 2.18a.25.25 0 0 0-.48 0l-2.35 8.36A2 2 0 0 1 4.49 12H2"></path></symbol>
<symbol viewBox="0 0 24 24" id="accessibility"><g fill="none" stroke="currentColor" stroke-linecap="round" stroke-linejoin="round" stroke-width="2"><circle cx="16" cy="4" r="1"></circle><path d="m18 19l1-7l-6 1M5 8l3-3l5.5 3l-2.36 3.5m-6.9 3a5 5 0 0 0 6.88 6"></path><path d="M13.76 17.5a5 5 0 0 0-6.88-6"></path></g></symbol>
<symbol viewBox="0 0 24 24" id="a-large-small"><path fill="none" stroke="currentColor" stroke-linecap="round" stroke-linejoin="round" stroke-width="2" d="M21 14h-5m0 2v-3.5a2.5 2.5 0 0 1 5 0V16M4.5 13h6M3 16l4.5-9l4.5 9"></path></symbol>
<symbol viewBox="0 0 24 24" id="a-arrow-up"><path fill="none" stroke="currentColor" stroke-linecap="round" stroke-linejoin="round" stroke-width="2" d="M3.5 13h6M2 16l4.5-9l4.5 9m7 0V7m-4 4l4-4l4 4"></path></symbol>
<symbol viewBox="0 0 24 24" id="a-arrow-down"><path fill="none" stroke="currentColor" stroke-linecap="round" stroke-linejoin="round" stroke-width="2" d="M3.5 13h6M2 16l4.5-9l4.5 9m7-9v9m-4-4l4 4l4-4"></path></symbol>
</defs>
</svg>